<svg width="25" height="25" viewBox="0 0 25 25" fill="none" xmlns="http://www.w3.org/2000/svg">
<path d="M8.5 18.2939L12.5 15.2439L16.5 18.2939L15 13.3439L19 10.4939H14.1L12.5 5.29395L10.9 10.4939H6L10 13.3439L8.5 18.2939ZM12.5 22.2939C11.1167 22.2939 9.81667 22.0314 8.6 21.5064C7.38333 20.9814 6.325 20.2689 5.425 19.3689C4.525 18.4689 3.8125 17.4106 3.2875 16.1939C2.7625 14.9773 2.5 13.6773 2.5 12.2939C2.5 10.9106 2.7625 9.61061 3.2875 8.39395C3.8125 7.17728 4.525 6.11895 5.425 5.21895C6.325 4.31895 7.38333 3.60645 8.6 3.08145C9.81667 2.55645 11.1167 2.29395 12.5 2.29395C13.8833 2.29395 15.1833 2.55645 16.4 3.08145C17.6167 3.60645 18.675 4.31895 19.575 5.21895C20.475 6.11895 21.1875 7.17728 21.7125 8.39395C22.2375 9.61061 22.5 10.9106 22.5 12.2939C22.5 13.6773 22.2375 14.9773 21.7125 16.1939C21.1875 17.4106 20.475 18.4689 19.575 19.3689C18.675 20.2689 17.6167 20.9814 16.4 21.5064C15.1833 22.0314 13.8833 22.2939 12.5 22.2939Z" fill="#E7A32C"/>
</svg>
